<?xml version="1.0" standalone="no"?>
<!DOCTYPE svg PUBLIC "-//W3C//DTD SVG 20010904//EN"
 "http://www.w3.org/TR/2001/REC-SVG-20010904/DTD/svg10.dtd">
<svg version="1.0" xmlns="http://www.w3.org/2000/svg"
 width="832.000000pt" height="832.000000pt" viewBox="0 0 832.000000 832.000000"
 preserveAspectRatio="xMidYMid meet">
<metadata>
Created by potrace 1.11, written by Peter Selinger 2001-2013
</metadata>
<g transform="translate(0.000000,832.000000) scale(0.100000,-0.100000)"
fill="#000000" stroke="none">
<path d="M4019 8156 c-1 -1 -2 -283 -3 -628 -1 -345 -6 -631 -10 -635 -4 -5
-11 -8 -14 -9 -19 -1 -133 -27 -174 -39 -27 -8 -48 -11 -48 -8 0 3 -7 0 -15
-7 -8 -7 -15 -9 -15 -5 0 4 -7 2 -15 -5 -8 -7 -15 -9 -15 -5 0 4 -6 3 -12 -3
-7 -5 -28 -13 -46 -17 -86 -18 -379 -147 -517 -228 -38 -22 -71 -40 -73 -39
-1 2 -9 -4 -17 -12 -8 -8 -31 -24 -52 -37 -52 -31 -184 -131 -263 -197 -112
-95 -335 -327 -364 -380 -5 -10 -15 -23 -22 -30 -24 -23 -124 -170 -124 -181
0 -6 -3 -11 -8 -11 -4 0 -18 -21 -32 -47 -13 -27 -27 -50 -30 -53 -10 -9 -106
-201 -139 -280 -18 -41 -36 -84 -41 -95 -19 -42 -80 -234 -100 -315 -23 -90
-27 -107 -35 -155 -3 -16 -8 -37 -10 -45 -5 -17 -16 -92 -21 -135 -1 -16 -5
-41 -8 -55 -2 -14 -7 -56 -11 -95 -3 -38 -8 -72 -11 -74 -3 -3 -172 -6 -377
-7 -205 -2 -373 -3 -374 -4 -2 -1 -41 -1 -88 0 -47 0 -91 0 -97 0 -229 -3
-338 -6 -339 -10 -14 -59 -14 -238 0 -300 0 -4 53 -6 116 -5 63 0 115 -4 115
-9 0 -5 5 -5 13 0 6 5 35 8 62 6 28 -1 59 -2 70 -2 11 1 25 1 30 1 6 0 203 -2
438 -4 235 -2 429 -6 431 -8 2 -2 7 -33 11 -69 3 -36 9 -81 11 -100 3 -19 7
-51 9 -70 3 -32 25 -147 39 -210 24 -106 30 -131 43 -175 8 -27 24 -77 35
-110 11 -33 21 -67 23 -76 2 -9 8 -25 14 -35 6 -11 22 -50 37 -89 26 -69 99
-221 144 -300 13 -22 28 -49 34 -60 42 -74 180 -268 257 -360 83 -98 319 -323
393 -374 12 -8 23 -18 26 -21 7 -9 184 -129 235 -159 176 -105 364 -191 560
-256 92 -31 298 -85 323 -85 47 -1 46 22 46 -647 l1 -628 43 0 c23 0 42 -3 42
-8 0 -4 5 -5 12 -1 7 4 53 8 102 8 l91 1 1 625 c1 344 2 628 3 631 1 7 67 26
116 34 17 2 46 10 65 15 19 6 45 13 57 16 43 9 268 86 278 95 5 5 15 9 23 9
26 0 319 148 420 211 184 117 303 212 467 374 110 109 141 143 200 220 17 21
37 46 46 55 9 10 25 31 35 49 10 17 22 31 26 31 4 0 8 4 8 9 0 4 23 44 52 87
29 44 79 131 111 194 33 63 62 120 66 125 4 6 17 37 30 70 13 33 29 74 37 92
15 33 83 235 89 263 2 8 13 52 24 97 12 45 22 93 23 107 1 14 5 26 8 26 5 0
11 52 14 108 1 12 4 22 7 22 3 0 6 6 6 13 1 6 4 39 7 72 4 33 9 85 12 115 3
30 7 56 9 59 3 2 192 5 421 7 229 1 418 5 421 8 3 3 13 1 22 -4 10 -5 23 -5
29 -1 7 4 35 4 62 1 28 -4 50 -4 50 -1 0 3 61 6 135 5 74 0 135 2 136 5 0 4 3
15 5 26 10 47 6 274 -6 276 -3 1 -72 3 -155 5 -165 4 -153 4 -230 4 -30 0 -61
0 -67 1 -7 0 -33 0 -58 0 -108 -3 -760 6 -765 10 -2 3 -7 41 -11 84 -3 44 -10
89 -14 101 -5 12 -7 24 -5 26 8 7 -32 218 -63 338 -35 134 -100 331 -113 345
-5 5 -9 15 -9 22 0 7 -25 66 -57 130 -31 65 -57 120 -57 123 -5 21 -178 296
-217 344 -12 15 -101 128 -114 144 -32 43 -272 277 -335 328 -165 134 -330
239 -526 334 -121 59 -149 72 -199 90 -11 4 -31 12 -45 18 -71 29 -289 93
-369 109 -14 3 -33 6 -41 8 -8 2 -20 4 -27 4 -38 3 -38 7 -38 649 0 342 -2
623 -5 623 -6 2 -279 6 -281 5z m-14 -1933 c-3 -214 -6 -394 -5 -400 0 -25 1
-39 0 -78 0 -22 0 -47 0 -55 0 -8 -2 -121 -4 -250 -3 -129 -7 -426 -10 -659
-4 -234 -8 -427 -11 -429 -4 -4 -678 -3 -894 2 l-75 1 4 70 c6 135 19 323 25
355 3 14 12 97 21 175 1 17 4 32 5 35 1 3 3 10 4 15 10 64 17 110 20 125 2 9
6 33 9 51 8 46 14 77 20 97 3 9 7 28 10 42 14 70 19 91 46 184 15 56 33 115
40 131 6 17 11 30 10 30 -2 0 6 24 16 50 4 11 8 22 8 25 9 41 134 312 150 322
6 4 8 8 3 8 -6 0 73 128 98 157 6 6 32 38 59 71 47 59 144 150 195 185 70 47
101 65 166 94 38 17 76 32 83 32 10 1 11 -75 7 -386z m372 367 c190 -79 374
-240 489 -425 10 -16 21 -32 24 -35 6 -6 17 -25 70 -125 53 -100 153 -353 176
-445 2 -8 8 -31 13 -50 13 -46 41 -160 46 -183 2 -10 6 -26 9 -35 3 -9 8 -33
11 -52 3 -19 12 -71 21 -115 8 -44 17 -93 19 -110 6 -54 22 -182 30 -235 4
-29 17 -183 20 -250 1 -25 4 -74 6 -110 l3 -65 -50 -2 c-127 -3 -915 -5 -919
-1 -4 4 -13 497 -20 1155 -2 172 -6 317 -10 323 -3 5 -1 10 5 10 6 0 8 5 5 11
-11 17 -17 759 -6 759 5 0 31 -9 58 -20z m-397 -2687 c1 -133 11 -791 16 -988
5 -235 4 -202 1 -295 -1 -41 1 -87 5 -102 4 -17 3 -28 -3 -28 -6 0 -7 -5 -4
-11 4 -6 9 -182 11 -391 l4 -380 -27 7 c-42 10 -183 82 -226 115 -272 207
-442 490 -587 979 -21 72 -25 87 -35 143 -3 15 -9 37 -14 50 -5 13 -9 26 -9
31 0 8 -12 78 -18 112 -20 104 -27 144 -29 165 -1 14 -5 43 -9 65 -7 41 -10
64 -20 175 -4 36 -9 83 -12 105 -2 22 -7 92 -10 155 -3 63 -6 117 -6 120 -2
37 -18 36 487 39 l485 2 0 -68z m1331 53 c3 -26 -14 -305 -25 -401 -13 -118
-34 -281 -42 -320 -3 -11 -7 -36 -10 -55 -3 -19 -7 -42 -9 -50 -2 -8 -7 -31
-10 -50 -3 -19 -10 -48 -15 -65 -5 -16 -11 -43 -14 -60 -9 -57 -64 -250 -91
-320 -15 -38 -28 -77 -30 -85 -7 -33 -142 -320 -155 -330 -3 -3 -17 -23 -30
-45 -124 -203 -301 -359 -508 -448 l-63 -27 5 354 c2 195 7 359 11 365 3 6 2
11 -3 11 -5 0 -6 17 -2 39 4 22 4 45 -1 52 -4 7 -5 17 -2 22 3 5 7 160 9 345
2 185 6 456 8 602 3 146 5 314 5 373 l1 108 485 -2 c334 -2 485 -6 486 -13z"/>
</g>
</svg>
